<svg xmlns="http://www.w3.org/2000/svg" viewBox="0 0 720 520" role="img"><defs><filter id="paper" x="-20%" y="-20%" width="140%" height="150%" color-interpolation-filters="sRGB"><feTurbulence type="fractalNoise" baseFrequency="0.72" numOctaves="2" seed="8" result="noise"/><feColorMatrix in="noise" type="matrix" values="0.06 0 0 0 0.94 0 0.06 0 0 0.94 0 0 0.06 0 0.94 0 0 0 0.12 0" result="grain"/><feBlend in="SourceGraphic" in2="grain" mode="multiply" result="textured"/><feDropShadow in="textured" dx="0" dy="4" stdDeviation="3" flood-color="#171b26" flood-opacity="0.18"/></filter></defs><g filter="url(#paper)"><path fill="#f6f0e6" d="M235 274h250l52 73v157H183V347Z"/><path fill="#d9cebc" d="m183 347 52-73h250l52 73Z"/><path fill="#171b26" d="M292 322h136v14H292Z"/></g><g filter="url(#paper)"><path fill="#092a67" d="M0 43h162l83 69-78 94H0Z"/><path fill="#efbd87" d="m146 79 78 37 68 66-45 46-77-55-54-21Z"/><path fill="#fffdf8" d="m207 109 102 64-73 117-102-64Z"/><path fill="#a96535" d="m574 52-82 38-61 71 49 42 72-61 52-25Z"/><path fill="#c83737" d="M720 20H574l-46 121 192 62Z"/><path fill="#fffdf8" d="m509 102 99 61-70 113-99-61Z"/><path fill="#a96535" d="m58 393 94-63 81-7 10 63-74 30-59 70H0Z"/><path fill="#397044" d="M0 331h88l65 114-55 75H0Z"/><path fill="#efbd87" d="m660 393-94-63-81-7-10 63 74 30 59 70h112V331h-88l-65 114 55 75h98Z"/><path fill="#092a67" d="M720 331h-88l-65 114 55 75h98Z"/></g><g fill="none" stroke="#c83737" stroke-linecap="round" stroke-linejoin="round" stroke-width="8"><path d="m211 179 10 12 25-32"/><path d="m504 171 10 12 25-32"/></g></svg>
